# xmcd
#
# Track frame offsets: 
#        150
#        20359
#        38140
#        62914
#        84664
#        118093
#        138566
#        156918
#        174538
#        193634
#        211861
#        229863
#
# Disc length: 3188 seconds
#
# Revision: 0
# Processed by: cddbd v1.5.2PL0 Copyright (c) Steve Scherf et al.
# Submitted via: ExactAudioCopy v1.3
#
DISCID=a50c720c
DTITLE=Black Cat Bone Blues Band - Too Blues To Succeed
DYEAR=2006
DGENRE=Electric Blues
TTITLE0=Corrina, Corrina
TTITLE1=Give Me Back My Wig
TTITLE2=I’m 45
TTITLE3=Perfect Love
TTITLE4=Piccolo Blues
TTITLE5=Watch Me Move
TTITLE6=Crazy, Wrong And Confused
TTITLE7=Don’t Let Go
TTITLE8=So Excited
TTITLE9=There’s A Woman
TTITLE10=Sabato Sera
TTITLE11=Red Onions
EXTD=
EXTT0=
EXTT1=
EXTT2=
EXTT3=
EXTT4=
EXTT5=
EXTT6=
EXTT7=
EXTT8=
EXTT9=
EXTT10=
EXTT11=
PLAYORDER=
